<svg id="visual" viewBox="0 0 1920 1080" width="1920" height="1080" xmlns="http://www.w3.org/2000/svg" xmlns:xlink="http://www.w3.org/1999/xlink" version="1.1"><rect x="0" y="0" width="1920" height="1080" fill="#262624"></rect><path d="M0 602L35.5 633.7C71 665.3 142 728.7 213.2 728.7C284.3 728.7 355.7 665.3 426.8 660.8C498 656.3 569 710.7 640 737.2C711 763.7 782 762.3 853.2 752.2C924.3 742 995.7 723 1066.8 699C1138 675 1209 646 1280 631C1351 616 1422 615 1493.2 625.2C1564.3 635.3 1635.7 656.7 1706.8 654C1778 651.3 1849 624.7 1884.5 611.3L1920 598L1920 1081L1884.5 1081C1849 1081 1778 1081 1706.8 1081C1635.7 1081 1564.3 1081 1493.2 1081C1422 1081 1351 1081 1280 1081C1209 1081 1138 1081 1066.8 1081C995.7 1081 924.3 1081 853.2 1081C782 1081 711 1081 640 1081C569 1081 498 1081 426.8 1081C355.7 1081 284.3 1081 213.2 1081C142 1081 71 1081 35.5 1081L0 1081Z" fill="#ececec"></path><path d="M0 763L35.5 767.5C71 772 142 781 213.2 792.7C284.3 804.3 355.7 818.7 426.8 800.5C498 782.3 569 731.7 640 724.5C711 717.3 782 753.7 853.2 757.5C924.3 761.3 995.7 732.7 1066.8 717.8C1138 703 1209 702 1280 717.2C1351 732.3 1422 763.7 1493.2 769.3C1564.3 775 1635.7 755 1706.8 758.3C1778 761.7 1849 788.3 1884.5 801.7L1920 815L1920 1081L1884.5 1081C1849 1081 1778 1081 1706.8 1081C1635.7 1081 1564.3 1081 1493.2 1081C1422 1081 1351 1081 1280 1081C1209 1081 1138 1081 1066.8 1081C995.7 1081 924.3 1081 853.2 1081C782 1081 711 1081 640 1081C569 1081 498 1081 426.8 1081C355.7 1081 284.3 1081 213.2 1081C142 1081 71 1081 35.5 1081L0 1081Z" fill="#d3d3d3"></path><path d="M0 857L35.5 861.3C71 865.7 142 874.3 213.2 872.3C284.3 870.3 355.7 857.7 426.8 852.7C498 847.7 569 850.3 640 859.5C711 868.7 782 884.3 853.2 887.3C924.3 890.3 995.7 880.7 1066.8 863.5C1138 846.3 1209 821.7 1280 806.3C1351 791 1422 785 1493.2 795.5C1564.3 806 1635.7 833 1706.8 849.8C1778 866.7 1849 873.3 1884.5 876.7L1920 880L1920 1081L1884.5 1081C1849 1081 1778 1081 1706.8 1081C1635.7 1081 1564.3 1081 1493.2 1081C1422 1081 1351 1081 1280 1081C1209 1081 1138 1081 1066.8 1081C995.7 1081 924.3 1081 853.2 1081C782 1081 711 1081 640 1081C569 1081 498 1081 426.8 1081C355.7 1081 284.3 1081 213.2 1081C142 1081 71 1081 35.5 1081L0 1081Z" fill="#bababa"></path><path d="M0 844L35.5 852.5C71 861 142 878 213.2 888.3C284.3 898.7 355.7 902.3 426.8 908.7C498 915 569 924 640 926.3C711 928.7 782 924.3 853.2 918.3C924.3 912.3 995.7 904.7 1066.8 906.3C1138 908 1209 919 1280 927C1351 935 1422 940 1493.2 940.2C1564.3 940.3 1635.7 935.7 1706.8 918.7C1778 901.7 1849 872.3 1884.5 857.7L1920 843L1920 1081L1884.5 1081C1849 1081 1778 1081 1706.8 1081C1635.7 1081 1564.3 1081 1493.2 1081C1422 1081 1351 1081 1280 1081C1209 1081 1138 1081 1066.8 1081C995.7 1081 924.3 1081 853.2 1081C782 1081 711 1081 640 1081C569 1081 498 1081 426.8 1081C355.7 1081 284.3 1081 213.2 1081C142 1081 71 1081 35.5 1081L0 1081Z" fill="#a2a2a2"></path><path d="M0 1002L35.5 998.7C71 995.3 142 988.7 213.2 990.2C284.3 991.7 355.7 1001.3 426.8 993.7C498 986 569 961 640 953.3C711 945.7 782 955.3 853.2 963.3C924.3 971.3 995.7 977.7 1066.8 984.7C1138 991.7 1209 999.3 1280 996.5C1351 993.7 1422 980.3 1493.2 976.5C1564.3 972.7 1635.7 978.3 1706.8 980.7C1778 983 1849 982 1884.5 981.5L1920 981L1920 1081L1884.5 1081C1849 1081 1778 1081 1706.8 1081C1635.7 1081 1564.3 1081 1493.2 1081C1422 1081 1351 1081 1280 1081C1209 1081 1138 1081 1066.8 1081C995.7 1081 924.3 1081 853.2 1081C782 1081 711 1081 640 1081C569 1081 498 1081 426.8 1081C355.7 1081 284.3 1081 213.2 1081C142 1081 71 1081 35.5 1081L0 1081Z" fill="#8a8a8a"></path></svg>