<svg id="visual" viewBox="0 0 1920 1080" width="1920" height="1080" xmlns="http://www.w3.org/2000/svg" xmlns:xlink="http://www.w3.org/1999/xlink" version="1.1"><rect x="0" y="0" width="1920" height="1080" fill="#f3e7dc"></rect><path d="M0 765L45.7 757.2C91.3 749.3 182.7 733.7 274.2 729C365.7 724.3 457.3 730.7 548.8 716.3C640.3 702 731.7 667 823 651.2C914.3 635.3 1005.7 638.7 1097 664.3C1188.3 690 1279.7 738 1371.2 750.8C1462.7 763.7 1554.3 741.3 1645.8 726.8C1737.3 712.3 1828.7 705.7 1874.3 702.3L1920 699L1920 1081L1874.3 1081C1828.7 1081 1737.3 1081 1645.8 1081C1554.3 1081 1462.7 1081 1371.2 1081C1279.7 1081 1188.3 1081 1097 1081C1005.7 1081 914.3 1081 823 1081C731.7 1081 640.3 1081 548.8 1081C457.3 1081 365.7 1081 274.2 1081C182.7 1081 91.3 1081 45.7 1081L0 1081Z" fill="#cfc0b2"></path><path d="M0 700L45.7 698.3C91.3 696.7 182.7 693.3 274.2 717.3C365.7 741.3 457.3 792.7 548.8 816.8C640.3 841 731.7 838 823 824.5C914.3 811 1005.7 787 1097 764.2C1188.3 741.3 1279.7 719.7 1371.2 711.8C1462.7 704 1554.3 710 1645.8 714C1737.3 718 1828.7 720 1874.3 721L1920 722L1920 1081L1874.3 1081C1828.7 1081 1737.3 1081 1645.8 1081C1554.3 1081 1462.7 1081 1371.2 1081C1279.7 1081 1188.3 1081 1097 1081C1005.7 1081 914.3 1081 823 1081C731.7 1081 640.3 1081 548.8 1081C457.3 1081 365.7 1081 274.2 1081C182.7 1081 91.3 1081 45.7 1081L0 1081Z" fill="#c5b6a9"></path><path d="M0 843L45.7 850C91.3 857 182.7 871 274.2 869.5C365.7 868 457.3 851 548.8 832.7C640.3 814.3 731.7 794.7 823 781.3C914.3 768 1005.7 761 1097 767.8C1188.3 774.7 1279.7 795.3 1371.2 803C1462.7 810.7 1554.3 805.3 1645.8 810.3C1737.3 815.3 1828.7 830.7 1874.3 838.3L1920 846L1920 1081L1874.3 1081C1828.7 1081 1737.3 1081 1645.8 1081C1554.3 1081 1462.7 1081 1371.2 1081C1279.7 1081 1188.3 1081 1097 1081C1005.7 1081 914.3 1081 823 1081C731.7 1081 640.3 1081 548.8 1081C457.3 1081 365.7 1081 274.2 1081C182.7 1081 91.3 1081 45.7 1081L0 1081Z" fill="#bbada0"></path><path d="M0 843L45.7 847.7C91.3 852.3 182.7 861.7 274.2 864.2C365.7 866.7 457.3 862.3 548.8 875.3C640.3 888.3 731.7 918.7 823 924.3C914.3 930 1005.7 911 1097 905C1188.3 899 1279.7 906 1371.2 909.5C1462.7 913 1554.3 913 1645.8 901.3C1737.3 889.7 1828.7 866.3 1874.3 854.7L1920 843L1920 1081L1874.3 1081C1828.7 1081 1737.3 1081 1645.8 1081C1554.3 1081 1462.7 1081 1371.2 1081C1279.7 1081 1188.3 1081 1097 1081C1005.7 1081 914.3 1081 823 1081C731.7 1081 640.3 1081 548.8 1081C457.3 1081 365.7 1081 274.2 1081C182.7 1081 91.3 1081 45.7 1081L0 1081Z" fill="#b1a397"></path><path d="M0 953L45.7 956.2C91.3 959.3 182.7 965.7 274.2 959.5C365.7 953.3 457.3 934.7 548.8 924.2C640.3 913.7 731.7 911.3 823 915C914.3 918.7 1005.7 928.3 1097 940.5C1188.3 952.7 1279.7 967.3 1371.2 975.8C1462.7 984.3 1554.3 986.7 1645.8 987.5C1737.3 988.3 1828.7 987.7 1874.3 987.3L1920 987L1920 1081L1874.3 1081C1828.7 1081 1737.3 1081 1645.8 1081C1554.3 1081 1462.7 1081 1371.2 1081C1279.7 1081 1188.3 1081 1097 1081C1005.7 1081 914.3 1081 823 1081C731.7 1081 640.3 1081 548.8 1081C457.3 1081 365.7 1081 274.2 1081C182.7 1081 91.3 1081 45.7 1081L0 1081Z" fill="#a79a8e"></path><path d="M0 1032L45.7 1033.3C91.3 1034.7 182.7 1037.3 274.2 1039.5C365.7 1041.7 457.3 1043.3 548.8 1033.7C640.3 1024 731.7 1003 823 998C914.3 993 1005.7 1004 1097 1006.2C1188.3 1008.3 1279.7 1001.7 1371.2 995.5C1462.7 989.3 1554.3 983.7 1645.8 980.2C1737.3 976.7 1828.7 975.3 1874.3 974.7L1920 974L1920 1081L1874.3 1081C1828.7 1081 1737.3 1081 1645.8 1081C1554.3 1081 1462.7 1081 1371.2 1081C1279.7 1081 1188.3 1081 1097 1081C1005.7 1081 914.3 1081 823 1081C731.7 1081 640.3 1081 548.8 1081C457.3 1081 365.7 1081 274.2 1081C182.7 1081 91.3 1081 45.7 1081L0 1081Z" fill="#9d9185"></path></svg>